<?xml version="1.0" encoding="utf-8"?>
<!-- Generator: Adobe Illustrator 27.1.1, SVG Export Plug-In . SVG Version: 6.00 Build 0)  -->
<svg version="1.1" id="Capa_1" xmlns="http://www.w3.org/2000/svg" xmlns:xlink="http://www.w3.org/1999/xlink" x="0px" y="0px"
	 viewBox="0 0 640 224" style="enable-background:new 0 0 640 224;" xml:space="preserve">
<style type="text/css">
	.st0{fill:#FFFFFF;}
	.st1{font-family:'CaslonBookBE-Regular';}
	.st2{font-size:165.404px;}
	.st3{letter-spacing:15.71;}
</style>
<g>
	<text transform="matrix(0.7 0 0 0.7 20.0117 90.6445)" class="st0 st1 st2 st3">cignoli</text>
</g>
<g>
	<path class="st0" d="M240.05,118.02c-2.74,0-5.36-0.77-8.1-1.09c-7.33-0.98-14.77-1.09-22.21-1.09c-7.77,0-15.54,0.99-22.65,4.27
		c-16.19,7.44-38.84,27.25-51.43,40.16c-5.91,6.02-11.16,12.8-17.73,18.16c-5.14,4.16-10.5,7.99-14.88,13.02
		c-6.13,7-10.61,15.1-16.3,22.32c-1.31,1.64-3.28,4.38-5.69,4.38c-1.75,0-3.06-0.66-3.06-2.63c0-15.76,36.98-66.42,36.98-71.89
		c0-1.2-0.88-1.75-1.97-1.75c-8.64,0-28.45,25.82-32.06,33.59c-0.66,1.42-0.88,2.74-2.41,3.61c0-0.22-0.44-1.42-0.44-1.53
		c0-9.41,36-47.93,45.3-47.93c1.75,0,2.41,0.88,2.41,2.52c0,12.25-33.15,48.25-33.15,60.73c0,0.33,0.44,1.09,0.88,1.09
		c2.3,0,6.46-5.14,7.99-6.78c4.05-4.27,8.86-7.77,13.35-11.49c6.24-5.14,11.16-11.6,16.74-17.51c4.49-4.71,9.52-8.86,13.57-13.9
		c1.86-2.3,3.5-4.71,5.58-6.78c13.24-12.91,43.88-26.81,62.37-26.81c8.64,0,16.96,1.53,25.28,3.5c1.64,0.44,3.72,0,3.72,2.41
		C242.13,117.69,240.93,118.02,240.05,118.02z"/>
	<path class="st0" d="M145.29,196.04c-0.98,0-1.53-2.08-1.53-2.84c0-2.85,0.55-5.8,1.64-8.43c-1.31,0.66-9.63,5.03-10.29,5.03
		c-0.44,0-0.77-0.22-1.09-0.44c0.11-1.09,5.25-3.39,6.35-3.94c4.16-2.3,7.99-5.69,11.27-9.08c0.88-0.99,2.85-4.6,4.05-4.6
		c0.66,0,1.09,0.77,1.09,1.31c0,1.97-8.97,10.94-8.97,16.08c0,0.11,0.33,0.88,0.33,1.1c0.33,0.11,0.77,0.44,1.09,0.44
		c3.28,0,5.36-3.17,8.32-4.05l0.66,0.22C157.54,188.81,147.37,196.04,145.29,196.04z M167.61,152.27c0.77,2.3,0.55,5.36-2.52,7.22
		c-2.63,0.55-0.77,4.38-3.61,4.6c-1.53-0.44,0-6.45,0-6.45c0-1.42,1.64-7.33,4.05-7.33C166.52,150.3,167.28,151.39,167.61,152.27z"
		/>
	<path class="st0" d="M178.77,180.94c0,1.2,0.11,1.64-1.64,3.72c-1.75,2.08-0.55,3.61,0.11,3.61c0.55,0,14.88-8.53,16.96-8.53
		c1.09,0,3.5-0.22,3.5,2.19c0,1.42-6.46,6.46-6.46,7.11c0,1.42,0.88,1.97,2.19,1.97c6.46,0,9.08-1.2,14.12-3.94
		c1.09-0.33,2.63-0.22,0.44,1.2c-1.64,0.99-9.3,5.58-15.32,5.69c-4.49,0-7.22-0.77-7.22-4.16c0-1.2,1.64-2.19,1.64-3.39
		c-0.33-0.11,0.11-0.44-0.66-0.44c-0.98,0-7.22,4.05-8.43,4.6c-2.95,1.42-11.16,6.35-12.36,6.35c-0.77,0-2.19,0.33-2.19-2.41
		c0-1.2,6.89-7.55,6.46-7.66c0-0.33,1.97-1.31,1.97-1.86c0-1.53-0.77-2.08-1.75-2.08c-3.83,0-15.65,7-16.63,7.33
		c-0.55,0-0.66-0.88,0-1.2c3.5-2.41,15.87-10.72,21.45-10.72C176.47,178.31,178.77,179.62,178.77,180.94z"/>
	<path class="st0" d="M237.09,178.42c0,3.06-0.77,4.49-2.63,6.67c-2.19,2.63-5.03,6.57-7.22,7.88c-2.84,1.64-7.33,4.27-11.49,6.13
		c-2.84,1.31-4.71,1.53-7.88,1.53c-1.2,0-3.06-1.64-3.17-3.17c-0.22-2.3,0.88-5.25,1.75-6.89c0.11-0.11,0.44-0.77,0.55-0.99
		c0.22-0.44-0.11-0.88-0.66-0.88c-0.44,0-1.09-0.44-0.22-0.99c1.2-0.77,3.06-1.75,4.6-3.61c1.75-2.41,5.69-4.81,8.32-6.24
		c0.98-0.55,6.57-3.06,8.64-2.95c1.2,0.11,1.97,0.44,2.3,0.88c0.44-0.77,1.75-0.99,2.95-0.99
		C235.34,174.81,237.09,177.21,237.09,178.42z M230.52,178.09c-0.22-0.22-0.66-0.33-1.09,0.11c-2.08,2.52-7.99,5.8-10.83,6.13
		c0,0-4.38,2.52-4.81,2.63c-1.75,0.55-4.27,6.13-4.27,7.77c0,1.53,1.53,1.86,2.74,1.86c2.52-0.11,8.21-1.86,10.5-3.5
		c0.77-0.44,2.52-2.08,4.38-3.94c0.88-0.33,1.42-1.09,1.53-1.75c1.75-1.97,3.5-4.16,4.27-5.91
		C233.47,180.17,231.72,179.19,230.52,178.09z"/>
	<path class="st0" d="M268.16,165.94c0,5.14-4.81,9.74-6.78,12.36c-0.77,2.74-0.88,6.13-2.63,10.18c-0.66,1.42-2.63,4.05-2.63,4.38
		c0.33,0.99,3.5-0.88,3.83-1.09c3.61-1.97,5.36-3.17,7.33-4.16c1.42-0.77,2.3-0.77,0.55,0.98c-1.2,1.2-5.8,4.16-7.99,5.36
		c0,0-5.91,3.28-6.89,3.5c-0.33,0.11-5.25,7.44-6.89,8.21c-1.64,0.77-4.81,0.88-6.78,0.88c-0.55,0-1.75-0.99-1.97-1.2
		c-1.86-3.17,4.16-6.35,5.25-6.78c0.44-0.22,1.09-0.98,1.64-1.2c0.22-0.11,4.81-2.19,5.25-2.19c1.2-0.33,6.57-8.1,7.44-13.9
		c0.11-0.44,0-0.55-0.33-0.77c-0.55-0.22-1.42,0.33-2.08,0.66c-1.31,0.66-2.95,1.97-3.28,2.08c-3.06,1.64-4.6,2.3-9.08,4.7
		c-1.09,0.66-2.3,1.31-2.95,1.42c-0.33,0-0.44-0.11-0.44-0.22c0-0.98,2.41-2.19,2.84-2.41c5.36-3.5,12.8-8.1,17.51-12.36
		c1.97-3.83,5.14-9.96,7.11-9.96C266.63,164.41,268.16,165.29,268.16,165.94z M244.85,202.05c1.2-0.66,2.41-2.19,3.17-3.28
		C241.13,200.52,241.35,203.91,244.85,202.05z"/>
	<path class="st0" d="M353.39,139.79c1.53,2.41,2.08,4.6,2.08,5.69c0,5.03-3.17,12.8-4.92,15.65c-3.83,6.02-8.97,11.16-13.9,15.87
		c-5.69,5.25-10.18,9.41-16.85,14.22c-0.98,0.77-3.39,1.97-5.91,3.39c-5.14,2.84-12.26,5.58-13.46,5.58c-2.3,0-4.92-2.19-4.92-4.27
		c0-0.88,0.77-3.28,1.64-4.16c2.08-1.97,4.6-6.13,7.22-7.88c2.84-1.86,5.25-1.75,9.08-4.27c1.64-1.09,6.67-4.05,8.97-4.05
		c0.98,0,1.64,0.77,1.64,1.2c-1.53,1.31-10.83,6.13-17.29,11.05c-3.17,2.41-4.92,3.72-4.92,5.58c0,1.2,0.33,1.53,1.09,1.53
		c0.98,0,10.07-3.61,13.02-5.36c5.8-3.39,11.6-9.08,16.85-14.33c7.66-7.66,13.57-15.32,14.33-18.71c0.11-0.66,2.41-7.22,2.41-8.97
		c0-3.5-1.64-7.77-7.22-7.77c-0.77,0-11.38,0.99-15.1,1.86c-4.16,0.88-21.77,8.75-21.77,14.77c0,0.99-1.53,5.91-1.53,6.67
		c0,4.05,2.95,7.55,8.32,8.43c0.33,0.88-1.2,1.09-1.86,0.99c-6.46-1.31-9.85-4.05-9.85-13.68c0-15.1,34.91-24.07,42.46-24.07
		C345.08,134.76,350.66,135.31,353.39,139.79z"/>
	<path class="st0" d="M367.5,171.31c0,7.11-7.55,10.5-13.46,14.33c-1.64,1.09-11.71,4.27-11.71,6.45c0,1.31,3.06,1.75,3.61,1.75
		c5.25,0,13.13-1.97,20.68-6.24c2.95-1.31,1.97,0.33,0.77,1.2c-5.58,4.27-13.35,8.1-23.64,8.1c-4.38,0-5.58-2.08-7-5.14
		c-0.44-0.98,1.31-5.03,2.84-7.55c3.39-5.36,8.75-10.07,14.01-12.91c3.83-2.08,7.22-2.52,10.61-2.52
		C366.3,168.79,367.5,170.1,367.5,171.31z M344.31,185.2c0,0-1.09,1.97,1.64,0.88c2.52-0.88,17.07-8.43,17.07-11.16
		c0-0.88-0.66-1.53-2.08-1.53C356.12,173.39,346.93,180.39,344.31,185.2z"/>
	<path class="st0" d="M423.3,174.81c0.66,1.09,0.88,1.97,1.2,2.95c0,0-0.11,0.11,0.33,0.11c0.99,0,1.2-1.75,3.28-1.75
		c0.77,0,1.86,0.11,2.08,1.09c0.88,2.3-1.64,3.28-2.63,4.92c-1.86,2.52-2.74,4.6-3.06,8.21c-0.11,0.77,1.31,0.88,1.75,0.77
		c5.91-1.42,7.44-3.06,9.63-4.05c0.99-0.44,1.31,0.33,0.55,1.09c-2.95,2.74-6.56,4.16-9.08,5.25c-1.64,0.77-4.49,1.42-4.92,1.42
		c-0.77,0-1.97-1.31-2.19-1.64c-0.55-1.75,0.88-4.81,0.88-5.69c0-0.44-0.33-0.88-0.77-0.66c0,0-0.55,0.22-1.2,0.77
		c-0.44,0.55-1.2,1.31-2.19,1.97c-2.85,2.19-8.32,5.8-10.07,5.8c-1.64,0-6.35-0.88-7-3.06c-0.44-1.64,1.42-5.14,3.61-7.44
		c2.85-2.85,7.66-5.58,11.27-7.66c2.95-1.64,5.58-2.74,6.78-2.74C421.99,174.48,422.97,174.59,423.3,174.81z M415.53,181.48
		c-0.99,0.55-2.08,1.2-3.06,1.86c-2.08,1.53-3.5,3.06-3.72,3.28c-1.53,1.42-3.17,2.85-2.85,3.72c0.11,0.33,0.66,0.66,1.2,0.66
		c0.77,0,1.75-0.55,2.95-0.98c1.2-0.55,2.74-1.31,4.05-2.08c2.52-1.53,4.38-3.17,5.03-3.72c0.55-0.66,1.75-1.42,1.97-2.41
		c0.44-0.77,0.44-1.53,0.33-1.75c-0.11-0.55-0.44-0.55-1.64-0.55C419.04,179.51,417.39,180.5,415.53,181.48z"/>
	<path class="st0" d="M463.24,190.56c-0.99,0.55-3.94,2.84-4.92,2.84c-2.74,0-1.86-1.86-1.86-3.94c0-0.55-0.11-1.2-0.77-1.2
		c-1.09,0-2.19,2.19-2.95,2.95c-2.63,2.52-12.15,6.24-15.87,6.24c-2.74,0-3.72-2.3-3.72-4.7c0-1.53-0.11-3.17,0.44-4.71
		c0.98-3.06,8.1-13.57,11.49-13.57c0.88,0,1.31,1.31,1.31,1.97c0,4.16-8.64,8.54-8.64,15.65c0,1.1,0.66,2.63,1.97,2.63
		c6.02,0,12.91-6.67,15.65-11.6c1.42-2.63,2.63-7.77,6.46-7.77c0.99,0,2.19,0.22,2.19,1.53c0,0.77-5.36,8.1-5.36,9.74
		c0,1.09,0.66,3.28,2.08,3.28c1.86,0,4.92-3.5,6.67-3.28c0,0.33,0.11,0.77,0.11,1.09C467.51,188.16,463.79,190.24,463.24,190.56z"/>
	<path class="st0" d="M592,150.9c-0.28,0.01-0.57,0.04-0.85,0.06c-7.66,0.33-15.21,0.11-22.87,0.77
		c-9.85,0.88-19.59,2.84-29.43,2.84c-7.55,0-14.99-1.64-22.54-1.86c4.6-3.06,25.71-13.57,25.71-18.71c0-1.64-2.85-2.19-4.05-2.19
		c-8.1,0-14.11,7.77-20.13,12.25c-3.94,2.95-8.1,5.36-11.82,8.54c-7.55-0.88-14.88-3.39-22.54-3.39c-9.41,0-18.6-1.31-28.01-1.31
		c-7.77,0-15.54-0.11-23.2,1.42c-2.63,0.55-14.22,2.52-14.22,5.8c0,2.74,9.41,6.35,11.82,6.35c0.55,0,1.09-0.33,1.42-0.77
		c-0.77-2.52-4.92-2.19-4.92-4.6c0-5.91,26.15-6.13,30.86-6.13c5.8,0,11.49,1.31,17.29,1.31c9.41,0,18.6,2.08,27.68,4.38
		c-5.03,5.69-8.97,12.36-14.11,18.05c-1.86,2.08-4.16,3.83-6.13,5.8c-3.17,3.17-5.58,7.11-9.41,9.63
		c-4.38,2.85-7.99,6.46-11.82,9.96c-1.42,1.31-2.63,2.41-2.63,4.49c0,1.31,0.99,1.86,2.19,1.86c3.39,0,13.9-11.71,17.07-14.44
		c4.7-4.05,9.3-8.1,13.46-12.58c7.33-7.88,13.24-17.62,22.76-23.09c8.75,0.66,17.51,2.08,26.26,2.08c17.07,0,33.92-3.72,50.99-4.38
		c0.36-0.02,0.71-0.04,1.07-0.05C591.89,152.29,591.93,151.6,592,150.9z"/>
	<path class="st0" d="M524.07,178.42c0,3.06-0.77,4.49-2.63,6.67c-2.19,2.63-5.03,6.57-7.22,7.88c-2.85,1.64-7.33,4.27-11.49,6.13
		c-2.84,1.31-4.7,1.53-7.88,1.53c-1.2,0-3.06-1.64-3.17-3.17c-0.22-2.3,0.88-5.25,1.75-6.89c0.11-0.11,0.44-0.77,0.55-0.99
		c0.22-0.44-0.11-0.88-0.66-0.88c-0.44,0-1.09-0.44-0.22-0.99c1.2-0.77,3.06-1.75,4.6-3.61c1.75-2.41,5.69-4.81,8.32-6.24
		c0.98-0.55,6.56-3.06,8.64-2.95c1.2,0.11,1.97,0.44,2.3,0.88c0.44-0.77,1.75-0.99,2.95-0.99
		C522.32,174.81,524.07,177.21,524.07,178.42z M517.51,178.09c-0.22-0.22-0.66-0.33-1.09,0.11c-2.08,2.52-7.99,5.8-10.83,6.13
		c0,0-4.38,2.52-4.81,2.63c-1.75,0.55-4.27,6.13-4.27,7.77c0,1.53,1.53,1.86,2.74,1.86c2.52-0.11,8.21-1.86,10.5-3.5
		c0.77-0.44,2.52-2.08,4.38-3.94c0.88-0.33,1.42-1.09,1.53-1.75c1.75-1.97,3.5-4.16,4.27-5.91
		C520.46,180.17,518.71,179.19,517.51,178.09z"/>
	<path class="st0" d="M543.76,176.34c0,0.99,2.19,3.94,2.19,6.89c0,1.53-1.53,3.72-2.52,5.25c-1.2,1.86-0.66,1.2-2.19,3.28
		c-0.44,0.66-0.88,1.31-0.88,1.86c0,0.44,0.33,0.77,0.98,0.66c0.99,0,11.49-3.72,15.43-6.67c1.75-0.77,2.19,0,1.42,1.09
		c-0.66,0.55-2.63,2.08-3.39,2.19c-2.63,1.97-15.21,8.97-16.85,8.97c-3.72,0-5.14-2.3-4.05-3.94c2.19-3.28,6.89-10.94,6.89-12.69
		c0-0.99-1.31-1.97-2.3-1.97c-1.53,0.22-3.72,2.63-5.58,4.16c-2.08,1.75-5.58,4.27-6.56,4.27c-0.99,0-1.2-0.11-0.77-0.99
		c1.53-1.09,6.78-5.36,7.99-6.78c0,0,1.53-1.75,1.86-2.3c0.44-0.77,0.77-1.64,1.09-2.3c0.66-1.42,1.75-3.72,2.74-4.81
		c0.33-0.44,1.53-0.55,1.86-0.55C543.44,171.96,543.76,175.57,543.76,176.34z"/>
</g>
</svg>
